<svg width="389" height="144" viewBox="0 0 389 144" fill="none" xmlns="http://www.w3.org/2000/svg">
<path d="M0 8.00001C0 3.58173 3.58172 0 8 0H380.64C385.058 0 388.64 3.58172 388.64 8V135.293C388.64 139.711 385.058 143.293 380.64 143.293H8.00002C3.58174 143.293 0 139.711 0 135.293V8.00001Z" fill="white"/>
<path d="M226.999 31.9922V36H224.656V24.625H229.093C229.947 24.625 230.697 24.7812 231.343 25.0938C231.994 25.4062 232.494 25.8516 232.843 26.4297C233.192 27.0026 233.367 27.6562 233.367 28.3906C233.367 29.5052 232.984 30.3854 232.218 31.0312C231.458 31.6719 230.403 31.9922 229.054 31.9922H226.999ZM226.999 30.0938H229.093C229.713 30.0938 230.184 29.9479 230.507 29.6562C230.835 29.3646 230.999 28.9479 230.999 28.4062C230.999 27.849 230.835 27.3984 230.507 27.0547C230.179 26.7109 229.726 26.5339 229.148 26.5234H226.999V30.0938ZM249.128 30.5703C249.128 31.6901 248.93 32.6719 248.534 33.5156C248.138 34.3594 247.57 35.0104 246.831 35.4688C246.096 35.9271 245.253 36.1562 244.299 36.1562C243.357 36.1562 242.516 35.9297 241.776 35.4766C241.036 35.0234 240.463 34.3776 240.057 33.5391C239.651 32.6953 239.445 31.7266 239.44 30.6328V30.0703C239.44 28.9505 239.641 27.9661 240.042 27.1172C240.448 26.263 241.018 25.6094 241.753 25.1562C242.492 24.6979 243.336 24.4688 244.284 24.4688C245.232 24.4688 246.073 24.6979 246.807 25.1562C247.547 25.6094 248.117 26.263 248.518 27.1172C248.924 27.9661 249.128 28.9479 249.128 30.0625V30.5703ZM246.753 30.0547C246.753 28.862 246.539 27.9557 246.112 27.3359C245.685 26.7161 245.075 26.4062 244.284 26.4062C243.497 26.4062 242.891 26.7135 242.463 27.3281C242.036 27.9375 241.82 28.8333 241.815 30.0156V30.5703C241.815 31.7318 242.029 32.6328 242.456 33.2734C242.883 33.9141 243.497 34.2344 244.299 34.2344C245.086 34.2344 245.69 33.9271 246.112 33.3125C246.534 32.6927 246.747 31.7917 246.753 30.6094V30.0547ZM264.49 32.7188L266.021 24.625H268.357L265.834 36H263.474L261.623 28.3906L259.771 36H257.412L254.888 24.625H257.224L258.763 32.7031L260.638 24.625H262.623L264.49 32.7188ZM281.274 31.0703H276.774V34.1172H282.056V36H274.431V24.625H282.04V26.5234H276.774V29.2344H281.274V31.0703ZM292.442 31.8359H290.574V36H288.231V24.625H292.457C293.801 24.625 294.837 24.9245 295.567 25.5234C296.296 26.1224 296.66 26.9688 296.66 28.0625C296.66 28.8385 296.491 29.487 296.153 30.0078C295.819 30.5234 295.311 30.9349 294.629 31.2422L297.09 35.8906V36H294.574L292.442 31.8359ZM290.574 29.9375H292.465C293.054 29.9375 293.509 29.7891 293.832 29.4922C294.155 29.1901 294.317 28.776 294.317 28.25C294.317 27.7135 294.163 27.2917 293.856 26.9844C293.554 26.6771 293.087 26.5234 292.457 26.5234H290.574V29.9375ZM310.093 31.0703H305.593V34.1172H310.874V36H303.249V24.625H310.859V26.5234H305.593V29.2344H310.093V31.0703ZM317.049 36V24.625H320.549C321.549 24.625 322.443 24.8516 323.229 25.3047C324.021 25.7526 324.638 26.3932 325.081 27.2266C325.523 28.0547 325.745 28.9974 325.745 30.0547V30.5781C325.745 31.6354 325.526 32.5755 325.088 33.3984C324.656 34.2214 324.044 34.8594 323.253 35.3125C322.461 35.7656 321.568 35.9948 320.573 36H317.049ZM319.393 26.5234V34.1172H320.526C321.443 34.1172 322.143 33.8177 322.628 33.2188C323.112 32.6198 323.359 31.763 323.37 30.6484V30.0469C323.37 28.8906 323.13 28.0156 322.651 27.4219C322.172 26.8229 321.471 26.5234 320.549 26.5234H319.393ZM341.04 36V24.625H345.024C346.405 24.625 347.451 24.8906 348.165 25.4219C348.879 25.9479 349.235 26.7214 349.235 27.7422C349.235 28.2995 349.092 28.7917 348.806 29.2188C348.519 29.6406 348.121 29.9505 347.61 30.1484C348.194 30.2943 348.652 30.5885 348.985 31.0312C349.324 31.474 349.493 32.0156 349.493 32.6562C349.493 33.75 349.144 34.5781 348.446 35.1406C347.748 35.7031 346.754 35.9896 345.462 36H341.04ZM343.384 31.0469V34.1172H345.392C345.944 34.1172 346.373 33.987 346.681 33.7266C346.993 33.4609 347.149 33.0964 347.149 32.6328C347.149 31.5911 346.61 31.0625 345.532 31.0469H343.384ZM343.384 29.3906H345.118C346.3 29.3698 346.892 28.8984 346.892 27.9766C346.892 27.4609 346.741 27.0911 346.438 26.8672C346.142 26.638 345.67 26.5234 345.024 26.5234H343.384V29.3906ZM359.543 29.75L361.91 24.625H364.473L360.738 31.875V36H358.356V31.875L354.621 24.625H357.192L359.543 29.75Z" fill="#2D2D2D"/>
<g clip-path="url(#clip0)">
<path d="M116.062 79.833C116.062 66.549 123.136 59.961 137.014 59.961C142.684 59.961 146.032 60.987 148.895 62.283L146.465 68.925C142.846 67.953 141.335 67.575 137.122 67.52C130.21 67.413 125.405 71.3 125.405 79.292C125.405 87.285 130.481 91.551 138.203 91.551C141.928 91.551 144.143 91.227 147.057 90.471L149.002 97.383C145.33 98.733 142.145 99.219 137.231 99.219C123.245 99.219 116.062 92.361 116.062 79.833ZM174.71 83.937C174.71 79.185 173.523 75.567 168.552 75.567C163.693 75.567 162.344 79.185 162.344 83.992C162.344 89.067 163.856 92.145 168.661 92.145C173.523 92.145 174.709 88.959 174.709 83.937H174.71ZM153.27 84.207C153.27 74.432 159.373 68.438 168.715 68.438C179.191 68.438 183.891 74.325 183.891 83.938C183.891 93.981 177.3 99.328 168.228 99.328C158.509 99.328 153.27 93.441 153.27 84.206V84.207ZM186.81 69.195H196.476L201.444 85.179L202.956 91.065L204.631 85.179L210.137 69.195H219.589L208.14 98.679H197.447L186.81 69.195ZM240.27 91.173V86.53L235.845 86.639C233.197 86.692 231.255 87.556 231.255 89.716C231.255 91.444 232.928 92.2 234.548 92.2C236.276 92.2 238.328 91.713 240.271 91.174L240.27 91.173ZM222.505 90.255C222.505 82.803 229.311 81.291 235.143 81.291H240.271V79.454C240.271 76.863 238.597 76.107 234.927 76.107C232.009 76.107 228.877 76.755 226.123 77.402L224.343 70.868C227.691 69.573 231.579 68.493 236.276 68.493C245.403 68.493 249.075 71.085 249.075 77.727V90.849C249.075 91.821 250.047 92.037 251.72 92.091L251.396 98.895C250.695 98.949 249.991 98.949 249.289 98.949C245.727 98.949 241.947 98.355 241.137 95.817C238.977 97.492 235.899 99.165 232.657 99.165C226.179 99.165 222.505 96.141 222.505 90.255ZM258.419 57.962H267.437V98.68H258.419V57.962ZM292.441 80.913C292.549 77.349 290.983 74.865 288.067 74.865C284.989 74.865 282.992 77.025 282.829 80.913H292.441ZM273.593 84.368C273.593 72.327 279.913 68.493 288.823 68.493C298.111 68.493 301.676 74.541 301.676 83.451V86.691H282.56C282.507 91.335 286.177 92.199 290.873 92.199C292.873 92.199 296.221 91.551 299.3 91.011L300.65 97.868C297.356 98.841 293.144 99.328 289.58 99.328C279.86 99.328 273.593 96.141 273.593 84.368ZM307.835 69.195H316.853V72.165C318.636 70.815 322.524 68.438 326.467 68.438C335.7 68.438 336.348 73.514 336.348 80.211V98.68H327.383V80.967C327.383 76.917 326.467 76.215 323.44 76.215C320.741 76.215 318.312 77.079 316.853 77.781V98.679H307.835V69.195ZM345.205 89.499V75.837H340.887V69.195H345.205V63.146H354.169V69.195H363.297V75.837H354.169V89.445C354.169 91.605 354.98 91.767 357.411 91.767C359.408 91.767 363.783 91.173 363.783 91.173L364.647 98.247C362.54 98.841 359.679 99.273 357.519 99.273C351.848 99.273 345.205 99.543 345.205 89.499ZM64.648 56.956V37.996C42.188 37.996 24 56.185 24 78.644C24 101.104 42.189 119.294 64.648 119.294V100.334C52.66 100.334 42.96 90.633 42.96 78.644C42.96 66.657 52.66 56.956 64.648 56.956Z" fill="#000426"/>
<path d="M86.416 56.956C85.1711 56.956 83.9383 56.7108 82.7882 56.2344C81.638 55.7579 80.5929 55.0596 79.7126 54.1793C78.8323 53.299 78.134 52.254 77.6576 51.1038C77.1812 49.9536 76.936 48.7209 76.936 47.476C76.936 46.231 77.1812 44.9983 77.6576 43.8481C78.134 42.698 78.8323 41.6529 79.7126 40.7726C80.5929 39.8923 81.638 39.194 82.7882 38.7176C83.9383 38.2412 85.1711 37.996 86.416 37.996C88.9303 37.996 91.3415 38.9948 93.1194 40.7726C94.8972 42.5504 95.896 44.9617 95.896 47.476C95.896 49.9902 94.8972 52.4015 93.1194 54.1793C91.3415 55.9572 88.9303 56.956 86.416 56.956Z" fill="#00D8D5"/>
<path d="M86.257 119.293C83.7427 119.293 81.3315 118.294 79.5536 116.516C77.7758 114.739 76.777 112.327 76.777 109.813C76.777 107.299 77.7758 104.887 79.5536 103.11C81.3315 101.332 83.7427 100.333 86.257 100.333C88.7713 100.333 91.1825 101.332 92.9604 103.11C94.7382 104.887 95.737 107.299 95.737 109.813C95.737 112.327 94.7382 114.739 92.9604 116.516C91.1825 118.294 88.7713 119.293 86.257 119.293Z" fill="#EA048C"/>
<path d="M86.337 78.644C86.337 90.633 76.637 100.334 64.648 100.334V56.955C76.636 56.955 86.337 66.655 86.337 78.643" fill="#000426"/>
</g>
<defs>
<clipPath id="clip0">
<rect width="340.64" height="81.293" fill="white" transform="translate(24 38)"/>
</clipPath>
</defs>
</svg>
